<?xml version="1.0" encoding="utf-8"?>
<!-- Generator: Adobe Illustrator 23.0.6, SVG Export Plug-In . SVG Version: 6.00 Build 0)  -->
<svg version="1.1" id="Layer_1" xmlns="http://www.w3.org/2000/svg" xmlns:xlink="http://www.w3.org/1999/xlink" x="0px" y="0px"
	 viewBox="0 0 200 200" style="enable-background:new 0 0 200 200;" xml:space="preserve">
<style type="text/css">
	.st0{fill:#FFFFFF;}
</style>
<g>
	<path class="st0" d="M97.2,168.3c0.3-0.7,0.2-1.5,0.2-2.2c0-46.2,0-92.3,0-138.5c0-1.1-0.1-2.3,0.2-3.4c0.6-1.9,2-3.1,3.8-3
		c1.8,0,3.4,1.4,3.8,3.4c0.2,1,0.1,2,0.1,3c0,46.1,0,92.2,0,138.3c0,0.7,0,1.5,0,2.2c1-0.2,1.4-0.9,1.9-1.4
		c14.1-14.1,28.2-28.2,42.3-42.3c0.7-0.7,1.4-1.5,2.3-1.9c1.6-0.8,3.1-0.6,4.4,0.6c1.3,1.3,1.7,2.8,0.8,4.5c-0.4,0.8-1,1.6-1.7,2.2
		c-16.9,17-33.9,33.9-50.8,50.8c-2.1,2.1-4.5,2.1-6.6,0c-17-17-34-34-50.9-51c-0.6-0.6-1.1-1.2-1.5-1.9c-0.9-1.6-0.6-3.2,0.7-4.5
		c1.3-1.3,2.8-1.5,4.5-0.7c0.9,0.5,1.6,1.2,2.3,1.9c14.2,14.2,28.5,28.5,42.7,42.7C96.2,167.6,96.5,168.2,97.2,168.3z"/>
</g>
</svg>
